PathFileType  4	(X/Y/Z) C:\Users\antoi\Documents\MyRepositories\mobilecap\ResultsAnalysis
DataRate	CameraRate	NumFrames	NumMarkers	Units	OrigDataRate	OrigDataStartFrame	OrigNumFrames
100.0	100.0	4	51	mm	100.0	87	139
Frame#	Time	r_knee			r_shank_antsup			r_ankle			r_calc			r_5meta			r_toe			L_knee			L_shank_antsup			L_ankle			L_calc			L_5meta			L_toe			r_sh2			r_sh3			r_sh4			L_sh2			L_sh3			r_thigh1			r_thigh2			r_thigh3			r_thigh4			r_thigh5			L_thigh1			L_thigh2			L_thigh3			L_thigh4			r.ASIS			r.PSIS			L.ASIS			L.PSIS			C7			R_Shoulder			L_Shoulder			R_Sternum			L_Sternum			R_humerus			R_elbow_med			R_elbow_lat			R_forearm			R_wrist_radius			R_wrist_ulna			L_humerus			L_elbow_med			L_elbow_lat			L_forearm			L_wrist_radius			L_wrist_ulna			R_HJC			L_HJC			R_HJC_reg			L_HJC_reg			
		X1	Y1	Z1	X2	Y2	Z2	X3	Y3	Z3	X4	Y4	Z4	X5	Y5	Z5	X6	Y6	Z6	X7	Y7	Z7	X8	Y8	Z8	X9	Y9	Z9	X10	Y10	Z10	X11	Y11	Z11	X12	Y12	Z12	X13	Y13	Z13	X14	Y14	Z14	X15	Y15	Z15	X16	Y16	Z16	X17	Y17	Z17	X18	Y18	Z18	X19	Y19	Z19	X20	Y20	Z20	X21	Y21	Z21	X22	Y22	Z22	X23	Y23	Z23	X24	Y24	Z24	X25	Y25	Z25	X26	Y26	Z26	X27	Y27	Z27	X28	Y28	Z28	X29	Y29	Z29	X30	Y30	Z30	X31	Y31	Z31	X32	Y32	Z32	X33	Y33	Z33	X34	Y34	Z34	X35	Y35	Z35	X36	Y36	Z36	X37	Y37	Z37	X38	Y38	Z38	X39	Y39	Z39	X40	Y40	Z40	X41	Y41	Z41	X42	Y42	Z42	X43	Y43	Z43	X44	Y44	Z44	X45	Y45	Z45	X46	Y46	Z46	X47	Y47	Z47	X48	Y48	Z48	X49	Y49	Z49	X50	Y50	Z50	X51	Y51	Z51	

87	0.86000000	934.05655	503.15810	-118.48041	917.75571	404.07703	-128.64812	650.82844	222.71579	-159.03397	591.95889	239.28098	-219.31273	686.47831	103.31742	-106.74791	739.84375	99.19636	-153.08409	866.41521	498.64318	-397.95352	899.94872	411.18536	-378.05008	803.80507	94.11751	-354.85866	728.39638	52.14686	-305.24085	907.06824	39.04671	-388.09350	953.57240	64.50701	-329.80878	836.56615	325.07074	-136.46788	868.97889	449.92266	-95.15643	781.95913	376.16001	-99.19314	822.51809	427.68489	-424.29762	806.90905	308.52043	-422.30035	894.27710	781.46151	-99.84178	939.32293	680.48165	-104.57637	893.95482	633.13331	-83.32530	791.22999	733.66059	-98.38138	843.93153	631.15172	-110.89653	920.20998	751.19360	-421.03271	938.97396	615.46842	-389.19995	823.28057	727.28746	-465.94104	839.40542	599.44773	-429.16760	885.48680	964.65768	-143.95393	688.04598	991.54904	-242.14884	907.41170	971.65120	-397.29114	699.42825	997.91918	-336.31950	716.51578	1455.09518	-288.78066	761.10172	1430.40685	-117.32647	813.46607	1427.15728	-429.66463	842.57904	1388.92385	-247.10507	845.33034	1390.27238	-293.84522	785.20668	1300.60513	-56.58282	721.14830	1098.48200	-119.67019	709.11512	1109.43809	-52.66167	753.52396	1046.33724	-14.83929	807.20335	881.23656	-24.47047	763.06082	883.51105	2.12693	859.33098	1293.36560	-481.64409	805.15271	1086.74903	-449.76000	831.95468	1102.59877	-522.81628	891.06700	1055.25639	-528.81679	961.76157	891.64913	-508.91456	929.36507	890.37576	-548.12754	808.46865	875.28796	-179.80824	826.85311	882.33608	-368.34188	818.69186	881.67546	-193.75144	838.78990	892.93300	-360.05952	
88	0.87000000	954.05256	508.38128	-119.59555	941.58075	408.69567	-128.73622	683.47055	214.13863	-158.25788	623.27662	227.02260	-218.04342	726.83845	97.41343	-105.82464	780.24919	96.91237	-152.45812	869.02489	498.95543	-398.53198	901.83627	411.23618	-378.94846	804.00863	94.11723	-354.94221	728.58627	52.23911	-305.27541	907.06525	38.93073	-388.24497	953.65948	64.33227	-330.00625	864.14198	326.13889	-136.05806	890.58093	452.65114	-95.75292	806.93779	375.03421	-99.38123	824.14774	428.31906	-424.58008	807.62428	309.19612	-422.52120	907.69222	785.51588	-99.89293	955.07905	685.82017	-105.04006	910.96782	637.33666	-83.43138	805.65807	735.42323	-98.24403	860.93004	634.30034	-110.81896	927.49868	750.57033	-421.93481	944.09704	614.53028	-390.16677	829.86791	728.32378	-466.19527	844.02290	600.27705	-429.19125	896.68732	967.45361	-145.32470	698.93606	993.74843	-242.87042	917.84538	972.62827	-398.41707	710.34563	999.66176	-337.17981	728.58491	1456.71464	-289.53963	772.59022	1432.02224	-118.02964	825.96977	1428.98416	-429.83304	854.33117	1390.34164	-247.46181	857.25944	1391.69646	-294.15787	795.69827	1302.13517	-57.16712	730.75293	1100.58594	-121.16428	717.98221	1111.61944	-54.27563	760.85085	1047.87202	-16.10790	811.88485	881.89455	-25.43707	767.63713	884.96666	0.79688	873.52085	1296.02993	-481.18660	821.44139	1088.67866	-450.55782	849.29869	1104.96840	-522.97274	909.65266	1058.88502	-527.43043	983.93703	897.20724	-505.51702	952.44338	894.98392	-545.40807	819.50213	877.87836	-180.15372	837.35458	883.63599	-368.78153	829.57923	884.02239	-194.68472	849.67732	894.44521	-360.81754	
89	0.88000000	973.24759	513.34680	-120.83190	964.86417	413.19480	-128.87232	716.88870	204.84422	-157.56743	655.70193	213.77754	-217.05406	767.84892	91.46040	-104.72121	821.24831	94.63879	-151.45701	871.71050	499.30986	-399.12264	903.77840	411.30864	-379.89630	804.25864	94.18184	-355.11288	728.81962	52.42005	-305.36696	907.06994	38.78271	-388.42213	953.73808	64.11367	-330.25232	891.59112	326.95317	-135.74297	911.39585	454.91916	-96.45048	831.60595	373.31725	-99.65431	825.83242	429.02161	-424.87140	808.38588	309.96970	-422.76464	921.07842	789.35965	-99.99475	970.58740	690.87714	-105.63073	927.74485	641.41646	-83.56924	820.02150	737.15152	-97.89554	877.62311	637.33327	-110.72474	934.76523	749.98240	-422.75121	949.31871	613.68050	-391.09371	836.44394	729.36328	-466.43744	848.75636	601.11119	-429.22394	907.90472	969.96873	-146.74190	709.81441	995.60521	-243.26927	928.19392	973.40812	-399.57120	721.15197	1001.19504	-337.73196	740.64895	1458.14490	-290.26257	784.09834	1433.44867	-118.70995	838.36395	1430.67215	-430.02114	866.11071	1391.60669	-247.83528	869.18117	1392.95468	-294.49065	806.20766	1303.50689	-57.71282	740.25335	1102.56006	-122.52864	726.82928	1113.66412	-55.76731	768.25482	1049.34842	-17.26312	816.73463	882.54712	-26.28976	772.40530	886.38510	-0.42679	887.51304	1298.54647	-480.84839	837.49561	1090.53740	-451.36133	866.38524	1107.22394	-523.11322	927.92186	1062.43632	-526.10594	1005.82982	902.86882	-502.11976	975.23277	899.65966	-542.60553	830.62565	880.16661	-180.43337	847.73293	884.73388	-369.16313	840.58786	885.96778	-195.69771	860.50774	895.79051	-361.64781	
90	0.89000000	991.59149	517.99107	-122.17991	987.55088	417.51318	-129.07981	751.07006	195.06087	-157.00704	689.28028	199.80972	-216.41550	809.36986	85.70263	-103.43977	862.72540	92.56596	-150.07400	874.55001	499.67790	-399.71732	905.83340	411.38532	-380.84599	804.55703	94.32235	-355.36769	729.05655	52.75711	-305.53225	907.08517	38.60407	-388.61759	953.83242	63.86105	-330.53532	918.88052	327.52447	-135.55947	931.47112	456.62715	-97.23865	856.06775	370.98046	-99.98531	827.67506	429.76271	-425.18429	809.29841	310.81792	-423.04711	934.44271	792.93770	-100.15549	985.81929	695.56518	-106.34271	944.19970	645.27127	-83.80523	834.31190	738.83444	-97.37676	893.94409	640.21938	-110.65521	942.03735	749.43202	-423.46341	954.69339	612.92240	-391.97761	843.06559	730.38229	-466.66969	853.64622	601.93620	-429.30189	919.08269	972.11649	-148.14019	720.68246	997.08411	-243.38151	938.47745	973.95661	-400.69961	731.84284	1002.49139	-337.98932	752.71968	1459.38207	-290.94597	795.64923	1434.64802	-119.35692	850.66958	1432.17978	-430.23469	877.92269	1392.69203	-248.22289	881.09503	1394.01846	-294.84380	816.73827	1304.66812	-58.22889	749.60377	1104.37616	-123.77396	735.67426	1115.52755	-57.12833	775.76035	1050.71018	-18.30193	821.79775	883.13638	-27.01976	777.36947	887.69946	-1.53273	901.31149	1300.85919	-480.63791	853.27595	1092.29774	-452.15545	883.21202	1109.30939	-523.24543	945.86659	1065.85791	-524.85741	1027.43486	908.58105	-498.75093	997.72157	904.36246	-539.74736	841.78234	882.08500	-180.64488	857.99934	885.59609	-369.47725	851.68739	887.45001	-196.73096	871.24747	896.92371	-362.50405	
